HIERARCHY
ROOT SpineBase
{
  OFFSET 0.000000 0.000000 0.000000
  CHANNELS 6 Xposition Yposition Zposition Zrotation Xrotation Yrotation
  JOINT SpineMid
  {
    OFFSET 0.000000 34.969528 0.000000
    CHANNELS 3 Zrotation Xrotation Yrotation
    JOINT SpineShoulder
    {
      OFFSET -0.335556 25.943188 -1.084147
      CHANNELS 3 Zrotation Xrotation Yrotation
      JOINT Neck
      {
        OFFSET -0.240140 8.571024 -0.764380
        CHANNELS 3 Zrotation Xrotation Yrotation
        JOINT Head
        {
          OFFSET -0.809564 12.249239 2.788025
          CHANNELS 3 Zrotation Xrotation Yrotation
          End Site
          {
            OFFSET 0 0 0
          }
        }
      }
      JOINT ShoulderLeft
      {
        OFFSET -12.183554 -6.113785 -9.546212
        CHANNELS 3 Zrotation Xrotation Yrotation
        JOINT ElbowLeft
        {
          OFFSET -4.476850 -25.744953 0.811185
          CHANNELS 3 Zrotation Xrotation Yrotation
          JOINT WristLeft
          {
            OFFSET -2.168607 -26.023592 10.176361
            CHANNELS 3 Zrotation Xrotation Yrotation
            JOINT HandLeft
            {
              OFFSET 2.217981 -2.315275 -2.744944
              CHANNELS 3 Zrotation Xrotation Yrotation
              JOINT HandTipLeft
              {
                OFFSET -1.505027 -7.614801 -0.003776
                CHANNELS 3 Zrotation Xrotation Yrotation
                End Site
                {
                  OFFSET 0 0 0
                }
              }
              JOINT ThumbLeft
              {
                OFFSET -1.515129 -1.971123 -9.445394
                CHANNELS 3 Zrotation Xrotation Yrotation
                End Site
                {
                  OFFSET 0 0 0
                }
              }
            }
          }
        }
      }
      JOINT ShoulderRight
      {
        OFFSET 12.824478 -3.586105 -1.524148
        CHANNELS 3 Zrotation Xrotation Yrotation
        JOINT ElbowRight
        {
          OFFSET 3.269353 -25.827877 -2.737950
          CHANNELS 3 Zrotation Xrotation Yrotation
          JOINT WristRight
          {
            OFFSET -31.423268 -10.377123 0.547707
            CHANNELS 3 Zrotation Xrotation Yrotation
            JOINT HandRight
            {
              OFFSET -2.678397 -3.733990 0.370784
              CHANNELS 3 Zrotation Xrotation Yrotation
              JOINT HandTipRight
              {
                OFFSET -0.582722 -8.189867 5.520859
                CHANNELS 3 Zrotation Xrotation Yrotation
                End Site
                {
                  OFFSET 0 0 0
                }
              }
              JOINT ThumbRight
              {
                OFFSET 3.220511 -5.703975 -0.302890
                CHANNELS 3 Zrotation Xrotation Yrotation
                End Site
                {
                  OFFSET 0 0 0
                }
              }
            }
          }
        }
      }
    }
  }
  JOINT HipLeft
  {
    OFFSET -7.634774 2.192886 -5.467118
    CHANNELS 3 Zrotation Xrotation Yrotation
    JOINT KneeLeft
    {
      OFFSET 9.978692 -40.389438 -0.908945
      CHANNELS 3 Zrotation Xrotation Yrotation
      JOINT AnkleLeft
      {
        OFFSET -2.722008 -35.400096 -2.356838
        CHANNELS 3 Zrotation Xrotation Yrotation
        JOINT FootLeft
        {
          OFFSET 6.850137 -3.830880 -1.689047
          CHANNELS 3 Zrotation Xrotation Yrotation
          End Site
          {
            OFFSET 0 0 0
          }
        }
      }
    }
  }
  JOINT HipRight
  {
    OFFSET 5.759907 1.019625 -1.418254
    CHANNELS 3 Zrotation Xrotation Yrotation
    JOINT KneeRight
    {
      OFFSET 11.060928 -45.080992 3.599437
      CHANNELS 3 Zrotation Xrotation Yrotation
      JOINT AnkleRight
      {
        OFFSET 1.841349 -29.844020 1.873403
        CHANNELS 3 Zrotation Xrotation Yrotation
        JOINT FootRight
        {
          OFFSET 0.007920 -4.000187 -10.314770
          CHANNELS 3 Zrotation Xrotation Yrotation
          End Site
          {
            OFFSET 0 0 0
          }
        }
      }
    }
  }
}
MOTION
Frames: 5
Frame Time: 0.033333
64.609573 78.985209 230.602215 -0.000000 0.000000 -16.818703 -0.000000 0.000000 16.818703 -0.000000 0.000000 0.000000 -0.000000 0.000000 0.000000 0.000000 0.000000 0.000000 -0.000000 0.000000 0.000000 -0.000000 0.000000 0.000000 -0.000000 0.000000 0.000000 -0.000000 0.000000 0.000000 0.000000 0.000000 0.000000 0.000000 0.000000 0.000000 -0.000000 0.000000 0.000000 -0.000000 0.000000 0.000000 -0.000000 0.000000 0.000000 -0.000000 0.000000 0.000000 0.000000 0.000000 0.000000 0.000000 0.000000 0.000000 -0.000000 0.000000 16.818703 -0.000000 0.000000 0.000000 -0.000000 0.000000 0.000000 0.000000 0.000000 0.000000 -0.000000 0.000000 16.818703 -0.000000 0.000000 0.000000 -0.000000 0.000000 0.000000 0.000000 0.000000 0.000000
64.944110 79.339439 230.441060 0.440301 -0.069420 -15.474975 -0.442861 -0.050577 15.475046 -0.000000 0.000000 0.000000 -0.000000 0.000000 0.000000 0.000000 0.000000 0.000000 -0.078782 -3.340605 0.575688 1.316358 0.691441 0.071865 0.472658 -13.270585 -20.911052 2.958084 11.019168 20.354611 0.000000 0.000000 0.000000 0.000000 0.000000 0.000000 -1.160433 0.380823 0.175244 1.159289 -0.384293 -0.167499 -9.517525 -19.105618 10.450288 13.613143 15.199910 -13.589221 0.000000 0.000000 0.000000 0.000000 0.000000 0.000000 -1.367541 -0.104394 15.542446 0.905287 -0.195924 -0.067103 -1.718592 7.058794 13.434924 0.000000 0.000000 0.000000 -0.442861 -0.050577 15.475046 -0.000000 0.000000 0.000000 0.618633 0.252497 -1.586932 0.000000 0.000000 0.000000
65.247009 79.623970 230.306687 0.828929 -0.145285 -14.268481 -0.839164 -0.063507 14.269067 -0.000000 0.000000 0.000000 -0.000000 0.000000 0.000000 0.000000 0.000000 0.000000 -0.113662 -6.144678 1.057854 2.634194 0.863374 0.171737 -12.680184 -33.574565 -56.893303 -3.066495 36.211324 49.216062 0.000000 0.000000 0.000000 0.000000 0.000000 0.000000 -2.139731 0.716935 0.331558 2.135719 -0.728804 -0.304584 -14.080837 -35.327182 17.940439 26.456766 24.323738 -28.027202 0.000000 0.000000 0.000000 0.000000 0.000000 0.000000 -2.596560 -0.125536 14.397482 2.803022 -0.996731 -0.137538 -5.877107 12.382333 24.152335 0.000000 0.000000 0.000000 -1.535931 -0.916663 14.031322 0.882879 0.658690 0.226710 1.105806 0.098601 -2.845291 0.000000 0.000000 0.000000
65.518269 79.838803 230.199097 1.163441 -0.227373 -13.211427 -1.184610 -0.044572 13.213274 -0.000000 0.000000 0.000000 -0.000000 0.000000 0.000000 0.000000 0.000000 0.000000 -0.118441 -8.458434 1.457307 3.929756 0.618320 0.311049 -36.973644 -40.137242 -91.269238 -17.180886 59.160476 73.921439 0.000000 0.000000 0.000000 0.000000 0.000000 0.000000 -2.927230 1.006746 0.464606 2.919442 -1.029129 -0.412658 -14.464394 -45.955967 23.698643 34.673122 28.416243 -38.793476 0.000000 0.000000 0.000000 0.000000 0.000000 0.000000 -3.682009 -0.081421 13.398590 3.929137 -1.405101 -0.184667 -9.904693 15.416558 32.729888 0.000000 0.000000 0.000000 -2.172651 -1.206876 12.881581 1.222438 0.912579 0.311167 1.473727 -0.429794 -3.831186 0.000000 0.000000 0.000000
65.757892 79.983936 230.118289 1.441824 -0.315409 -12.311995 -0.622048 0.045159 12.349092 -0.843630 0.139124 -0.032436 -1.032662 -0.287168 0.213730 0.000000 0.000000 0.000000 -0.103176 -10.325324 1.782300 5.180149 0.056618 0.496376 -54.687118 -37.311675 -108.079696 -35.081152 77.048655 94.092587 0.000000 0.000000 0.000000 0.000000 0.000000 0.000000 -3.514333 1.249068 0.570651 3.502596 -1.281644 -0.493142 -11.891615 -52.258962 28.989987 38.132970 30.493163 -45.507722 0.000000 0.000000 0.000000 0.000000 0.000000 0.000000 -4.620623 0.011138 12.555254 4.873260 -1.752849 -0.221403 -14.109749 16.986438 39.849905 0.000000 0.000000 0.000000 -2.711153 -1.403788 11.907542 1.498707 1.118972 0.378668 1.731952 -1.326987 -4.583225 0.000000 0.000000 0.000000
